<svg width="791" height="720" viewBox="0 0 791 720" fill="none" xmlns="http://www.w3.org/2000/svg">
<path d="M131.761 456.478H430.579L468.615 522.358H131.761C95.3762 522.358 65.8805 551.854 65.8805 588.239C65.8805 624.624 95.3762 654.119 131.761 654.119H544.688C569.082 696.354 613.331 719.975 658.835 720H131.761C58.9914 720 -4.95911e-05 661.009 -4.95911e-05 588.239C-4.95911e-05 515.469 58.9914 456.478 131.761 456.478Z" fill="url(#paint0_linear_1_3)"/>
<path d="M131.761 555.299H487.633L525.67 621.179H131.761C113.569 621.179 98.8208 606.431 98.8208 588.239C98.8208 570.046 113.569 555.299 131.761 555.299Z" fill="white"/>
<path d="M544.741 654.098L395.332 395.313L433.368 329.433L601.795 621.157C619.987 652.667 660.279 663.464 691.789 645.271C723.3 627.079 734.096 586.787 715.903 555.277L509.44 197.672C533.819 155.428 532.151 105.297 509.421 65.8774L772.958 522.336C809.342 585.357 787.75 665.941 724.73 702.325C661.709 738.71 581.126 717.118 544.741 654.098Z" fill="url(#paint2_linear_1_3)"/>
<path d="M630.322 604.687L452.386 296.493L490.422 230.612L687.376 571.747C696.472 587.502 691.074 607.648 675.319 616.744C659.564 625.84 639.418 620.442 630.322 604.687Z" fill="white"/>
<path d="M509.414 197.664L360.005 456.448H283.932L452.36 164.723C470.552 133.213 459.756 92.9213 428.246 74.7289C396.735 56.5365 356.444 67.3326 338.251 98.8428L131.788 456.448C83.0145 456.457 40.4336 482.967 17.6602 522.362L281.197 65.9025C317.582 2.88218 398.166 -18.7102 461.186 17.6746C524.206 54.0595 545.799 134.643 509.414 197.664Z" fill="white"/>
<path d="M423.833 148.253L245.896 456.448H169.824L366.778 115.313C375.875 99.5579 396.021 94.1599 411.776 103.256C427.531 112.352 432.929 132.498 423.833 148.253Z" fill="white"/>

</svg>
